<svg width="36" height="28" viewBox="0 0 36 28" fill="none" xmlns="http://www.w3.org/2000/svg">
<path d="M8.24471 11.848C10.4135 11.848 12.1775 9.1904 12.1775 5.9236C12.1775 2.6576 10.4135 0 8.24471 0C6.07591 0 4.31151 2.6576 4.31151 5.9236C4.31151 9.1904 6.07631 11.848 8.24471 11.848Z" fill="white"/>
<path d="M26.9591 11.848C29.1279 11.848 30.8923 9.1904 30.8923 5.9236C30.8923 2.6576 29.1279 0 26.9591 0C24.7907 0 23.0267 2.6576 23.0267 5.9236C23.0267 9.1904 24.7911 11.848 26.9591 11.848Z" fill="white"/>
<path d="M35.0345 16.5888C34.7853 16.3756 34.4419 16.3512 34.1784 16.5327C29.9478 19.4234 24.2083 21.4339 18.0165 22.1941C11.8261 22.9542 5.77041 22.392 0.965816 20.6111C0.665998 20.5 0.337778 20.6056 0.14905 20.8726C-0.0407267 21.1401 -0.0500675 21.512 0.125577 21.7983C2.7315 26.0529 10.3466 28.3121 18.643 27.2934C26.9426 26.2743 33.7852 22.2388 35.2823 17.4808C35.3828 17.161 35.283 16.8021 35.0345 16.5888Z" fill="white"/>
</svg>
